<svg width="46" height="42" viewBox="0 0 46 42" fill="none" xmlns="http://www.w3.org/2000/svg">
<path d="M5.96357 25.7547L6.1763 22.5639M6.1763 22.5639L6.31812 20.4366H1V40.6455L5.7863 41L5.81829 38.6973M6.1763 22.5639L9.33171 22.7411L9.05509 35.3273M5.81829 38.6973L5.96357 28.2365L5.7863 38.6955L5.81829 38.6973ZM5.81829 38.6973L8.97717 38.8728L9.05509 35.3273M9.05509 35.3273L21.7407 38.8728C23.4543 39.1091 27.4133 39.44 29.5406 38.8728C32.1996 38.1637 42.6586 34.441 43.8995 32.6683C45.1404 30.8956 44.254 28.9456 43.5449 28.9456M43.5449 28.9456C43.1946 28.9456 41.5025 29.3351 39.645 29.8362M43.5449 28.9456L39.645 29.8362M22.8043 27.1724L23.1588 18.8407C23.0997 19.018 23.017 18.9471 23.1588 17.2453C23.3361 15.118 26.1724 14.9412 27.4133 14.4094C28.406 13.984 30.3087 16.3594 31.136 17.6003L30.9587 31.7819C31.5496 31.9592 33.1214 32.1365 34.6814 31.4274C35.6679 30.979 37.7432 30.3491 39.645 29.8362M22.8043 27.1724C24.5179 27.8224 28.0869 29.1224 28.6542 29.1224C29.3633 29.1224 30.9587 30.8951 30.2496 31.6042C29.5406 32.3133 26.8815 33.5537 25.4633 32.4905C24.3288 31.64 21.5634 31.1907 20.3225 31.0724M22.8043 27.1724C21.2679 25.9315 17.6634 23.5915 15.5362 24.1588C15.2468 24.236 14.9497 24.3184 14.6498 24.4041M14.6498 24.4041C12.746 24.9484 10.7314 25.6252 9.86353 25.9315L14.6498 24.4041ZM31.4905 5.89995L27.236 2L15.7135 12.2817L11.8135 15.4726C11.6953 15.4726 11.459 15.8271 11.459 17.2453C11.459 18.6634 13.5862 18.1907 14.6498 17.7771L27.236 5.89995L39.645 17.6003M39.645 28.0588V17.6003M39.645 17.6003C40.1768 18.0729 41.4177 18.8407 42.1268 18.1316C43.0131 17.2453 42.6586 15.6498 42.1268 15.118C41.7013 14.6926 37.9314 11.3953 36.0996 9.7999L32.9087 7.14084" stroke="#0ADE94" stroke-width="1.8"/>
</svg>
